<svg id="icon" width="24" height="24" viewBox="0 0 24 24" fill="currentColor" xmlns="http://www.w3.org/2000/svg">
<path fill-rule="evenodd" clip-rule="evenodd" d="M8.59408 6.58891L13.4111 12.0941L11.9059 13.4111L7.08893 7.90592L8.59408 6.58891Z"/>
<path fill-rule="evenodd" clip-rule="evenodd" d="M11 4.06189C7.05369 4.55399 4 7.92038 4 12C4 16.4183 7.58172 20 12 20C16.4183 20 20 16.4183 20 12C20 10.721 19.7006 9.5148 19.169 8.44503L20.96 7.55497C21.626 8.89511 22 10.4053 22 12C22 17.5228 17.5228 22 12 22C6.47715 22 2 17.5228 2 12C2 6.47715 6.47715 2 12 2H13V7H11V4.06189Z"/>
</svg>
